<svg width="42" height="40" viewBox="0 0 42 40" fill="none" xmlns="http://www.w3.org/2000/svg">
<path d="M19.7066 25.775V13.4245H21.346V25.775H19.7066Z" fill="#222222"/>
<path fill-rule="evenodd" clip-rule="evenodd" d="M6 0C2.68629 0 0 2.68629 0 6V34C0 37.3137 2.68629 40 6 40H36C39.3137 40 42 37.3137 42 34V6C42 2.68629 39.3137 0 36 0H6ZM28.2632 7.925C27.0931 7.925 26.1356 8.87626 26.1356 10.05V25.8C26.1356 26.9737 27.0931 27.925 28.2632 27.925H29.9474C31.1175 27.925 32.075 26.9737 32.075 25.8V14.3865C32.075 13.7928 32.075 10.05 32.075 10.05L29.925 14.3865V25.775H28.2856V10.075H29.9253C29.9386 10.6572 29.925 14.3865 29.925 14.3865L32.075 10.05C32.075 8.87626 31.1175 7.925 29.9474 7.925H28.2632ZM19.6842 11.2745C18.5141 11.2745 17.5566 12.2258 17.5566 13.3995V25.8C17.5566 26.9737 18.5141 27.925 19.6842 27.925H21.3684C22.5385 27.925 23.496 26.9737 23.496 25.8V13.3995C23.496 12.2258 22.5385 11.2745 21.3684 11.2745H19.6842ZM11.1053 14.624C9.93515 14.624 8.97763 15.5753 8.97763 16.749C8.97763 17.3427 9.45893 17.824 10.0526 17.824C10.638 17.824 11.1141 17.3562 11.1273 16.774H12.7671V25.775H11.1276V20.55C11.1276 19.9563 10.6463 19.475 10.0526 19.475C9.45893 19.475 8.97763 19.9563 8.97763 20.55V25.8C8.97763 26.9737 9.93515 27.925 11.1053 27.925H12.7894C13.9596 27.925 14.9171 26.9737 14.9171 25.8V16.749C14.9171 15.5753 13.9596 14.624 12.7894 14.624H11.1053ZM9 29.925C8.40629 29.925 7.925 30.4063 7.925 31C7.925 31.5937 8.40629 32.075 9 32.075H14.2105C14.8042 32.075 15.2855 31.5937 15.2855 31C15.2855 30.4063 14.8042 29.925 14.2105 29.925H9ZM17.3684 29.925C16.7747 29.925 16.2934 30.4063 16.2934 31C16.2934 31.5937 16.7747 32.075 17.3684 32.075H31C31.5937 32.075 32.075 31.5937 32.075 31C32.075 30.4063 31.5937 29.925 31 29.925H17.3684Z" fill="#222222"/>
</svg>
