<svg width="42" height="40" viewBox="0 0 42 40" fill="none" xmlns="http://www.w3.org/2000/svg">
<path d="M19.8916 16.2634C19.8916 15.2286 20.1048 14.7894 20.3148 14.5804C20.5261 14.3701 20.9694 14.1584 22.0066 14.1584H24.7366C25.765 14.1584 26.2065 14.371 26.4178 14.5823C26.629 14.7935 26.8417 15.235 26.8417 16.2634V18.9934C26.8417 20.0279 26.6286 20.4712 26.4165 20.6832C26.2045 20.8953 25.7612 21.1084 24.7266 21.1084H24.6853V20.5801C24.6853 19.6912 24.3242 18.653 23.6417 17.8302C22.9349 16.9782 21.8465 16.3176 20.4173 16.3251H19.8916V16.2634Z" fill="#222222"/>
<path fill-rule="evenodd" clip-rule="evenodd" d="M6 0C2.68629 0 0 2.68629 0 6V34C0 37.3137 2.68629 40 6 40H36C39.3137 40 42 37.3137 42 34V6C42 2.68629 39.3137 0 36 0H6ZM15.1882 6.17415C14.7321 5.79408 14.0542 5.85571 13.6742 6.31181C13.2941 6.76792 13.3557 7.44577 13.8118 7.82585L15.0298 8.84083C13.712 9.28737 12.5116 10.0657 11.5386 11.0386C9.98309 12.5941 8.925 14.7311 8.925 17C8.925 17.5937 9.40629 18.075 10 18.075C10.5937 18.075 11.075 17.5937 11.075 17C11.075 15.3989 11.8319 13.7859 13.0589 12.5589C13.8025 11.8153 14.6879 11.2444 15.6265 10.9099L14.4818 13.283C14.2239 13.8177 14.4483 14.4603 14.983 14.7182C15.5178 14.9762 16.1604 14.7518 16.4183 14.217L18.4683 9.96704C18.6826 9.52286 18.5671 8.98986 18.1883 8.67415L15.1882 6.17415ZM24.7266 23.2584H24.6853V23.3101C24.6853 24.5555 24.4435 25.7072 23.6305 26.5202C22.8175 27.3332 21.6658 27.5751 20.4203 27.5751H17.6903C16.5694 27.5751 15.5296 27.3816 14.7375 26.7537C13.9123 26.0997 13.5607 25.1421 13.46 24.0817C13.4039 23.4907 13.8375 22.966 14.4286 22.9099C15.0196 22.8537 15.5443 23.2874 15.6004 23.8784C15.6697 24.608 15.8731 24.9104 16.073 25.0689C16.3059 25.2535 16.7611 25.4251 17.6903 25.4251H20.4203C21.4549 25.4251 21.8982 25.2119 22.1102 24.9999C22.3222 24.7879 22.5353 24.3446 22.5353 23.3101V20.5801C22.5353 20.2445 22.3701 19.6839 21.9855 19.2157C21.6267 18.7787 21.1207 18.4709 20.4267 18.4751L20.4203 18.4751H17.6903C16.7526 18.4751 16.3 18.6512 16.0704 18.8388C15.8703 19.0023 15.6639 19.3202 15.6017 20.087C15.5537 20.6787 15.0351 21.1195 14.4433 21.0716C13.8516 21.0236 13.4108 20.505 13.4587 19.9132C13.5466 18.83 13.8852 17.8478 14.7101 17.1739C15.5054 16.524 16.5578 16.3251 17.6903 16.3251H17.7416V16.2634C17.7416 15.0182 17.9833 13.8674 18.7983 13.0564C19.612 12.2467 20.7638 12.0084 22.0066 12.0084H24.7366C25.9782 12.0084 27.1268 12.2508 27.938 13.062C28.7493 13.8732 28.9917 15.0218 28.9917 16.2634V18.9934C28.9917 20.2388 28.7498 21.3905 27.9368 22.2035C27.1238 23.0165 25.9721 23.2584 24.7266 23.2584ZM33.075 23C33.075 22.4063 32.5937 21.925 32 21.925C31.4063 21.925 30.925 22.4063 30.925 23C30.925 24.6011 30.1681 26.2141 28.9411 27.4411C28.2756 28.1066 27.4965 28.6338 26.6674 28.977L27.9717 26.8031C28.2772 26.294 28.1121 25.6337 27.603 25.3282C27.0939 25.0227 26.4336 25.1878 26.1281 25.6969L23.5781 29.9469C23.3055 30.4013 23.4046 30.9866 23.8117 31.3258L26.8118 33.8258C27.2679 34.2059 27.9458 34.1443 28.3258 33.6882C28.7059 33.2321 28.6443 32.5542 28.1882 32.1742L26.9702 31.1592C28.288 30.7126 29.4884 29.9343 30.4614 28.9614C32.0169 27.4059 33.075 25.2689 33.075 23Z" fill="#222222"/>
</svg>
