<svg width="42" height="40" viewBox="0 0 42 40" fill="none" xmlns="http://www.w3.org/2000/svg">
<path d="M0 6C0 2.68629 2.68629 0 6 0H36C39.3137 0 42 2.68629 42 6V8C42 9.10457 41.1046 10 40 10H2C0.895431 10 0 9.10457 0 8V6Z" fill="#222222"/>
<path fill-rule="evenodd" clip-rule="evenodd" d="M2 12C0.89543 12 0 12.8954 0 14V34C0 37.3137 2.68629 40 6 40H36C39.3137 40 42 37.3137 42 34V14C42 12.8954 41.1046 12 40 12H2ZM25.0845 29.7871C25.0845 29.482 25.2238 29.1935 25.4628 29.0038L28.8561 26.3108C29.3597 25.9111 29.3607 25.1468 28.858 24.7458L25.4608 22.0355C25.223 21.8457 25.0845 21.558 25.0845 21.2538V20.9403C25.0845 20.1275 26.0027 19.6542 26.6647 20.1258L32.7802 24.4827C33.0436 24.6703 33.2 24.9738 33.2 25.2971V25.5908C33.2 25.9108 33.0468 26.2115 32.788 26.3997L26.6725 30.8455C26.0115 31.3261 25.0845 30.8539 25.0845 30.0367V29.7871ZM17.3154 21.2113C17.3154 21.5173 17.1753 21.8065 16.9351 21.9962L13.5458 24.672C13.0412 25.0705 13.0383 25.8348 13.5399 26.237L16.941 28.9645C17.1777 29.1543 17.3154 29.4413 17.3154 29.7447V30.0559C17.3154 30.8694 16.3957 31.3425 15.7339 30.8694L9.6184 26.4977C9.35579 26.31 9.19995 26.007 9.19995 25.6842V25.3905C9.19995 25.0699 9.35363 24.7688 9.61322 24.5807L15.7287 20.1497C16.3899 19.6706 17.3154 20.143 17.3154 20.9595V21.2113Z" fill="#222222"/>
</svg>
